<svg width="1771" height="551" viewBox="0 0 1771 551" fill="none" xmlns="http://www.w3.org/2000/svg">
<path d="M556.507 331.335V38.8355H655.301C720.989 38.8355 765.044 73.9848 765.044 167.686V202.483C765.044 296.184 720.989 331.335 655.301 331.335H556.507ZM715.869 202.483V167.686C715.869 107.456 697.24 81.6684 655.301 81.6684H605.685V288.944H655.301C697.24 288.944 715.869 262.625 715.869 202.483Z" fill="black"/>
<path d="M833.736 414.438V373.991H887.061C920.964 373.991 935.796 361.451 935.796 327.096V317.381C924.318 329.214 907.368 335.22 884.943 335.22C828.615 335.22 800.628 294.949 800.628 239.398V210.609C800.628 149.582 833.646 115.669 884.943 115.669C907.809 115.669 924.318 122.469 935.796 134.304V119.467H980.736V327.184C980.736 392.448 943.478 414.528 888.385 414.528H833.823L833.736 414.438ZM935.796 237.19V212.64C935.796 176.164 920.964 154.969 890.857 154.969C860.752 154.969 845.478 175.723 845.478 212.64V237.19C845.478 270.22 858.191 296.097 890.857 296.097C923.525 296.097 935.796 270.22 935.796 237.19Z" fill="black"/>
<path d="M1160.83 155.859H1113.77C1090.91 155.859 1074.75 172.816 1074.75 203.374V331.43H1029.37V119.385H1073.87V138.461C1081.9 126.185 1096.3 115.587 1121.37 115.587H1160.83V155.859Z" fill="black"/>
<path d="M1202.42 115.587H1244.89C1299.1 115.587 1328.41 132.544 1328.41 188.888V331.34H1283.92V311.823C1273.76 328.339 1260.61 335.138 1234.74 335.138C1188.12 335.138 1159.34 311.381 1159.34 268.99C1159.34 223.598 1192.8 206.288 1238.18 206.288H1283.92V188.447C1283.92 161.776 1273.76 155.859 1241.98 155.859H1202.34V115.587H1202.42ZM1284 241.082H1241.63C1214.96 241.082 1203.93 250.445 1203.93 269.08C1203.93 287.714 1218.32 296.634 1239.95 296.634C1267.49 296.634 1284 288.156 1284 251.239V241.082Z" fill="black"/>
<path d="M1556.81 239.405C1556.81 294.513 1529.71 335.227 1473.29 335.227C1448.74 335.227 1432.59 329.309 1421.99 317.828V411.973H1376.61V119.385H1421.99V136.342C1432.59 123.183 1449.54 115.587 1473.73 115.587C1524.58 115.587 1556.81 149.942 1556.81 210.527V239.318V239.405ZM1511.87 237.285V212.735C1511.87 175.818 1497.04 155.064 1466.93 155.064C1436.83 155.064 1422.44 175.376 1421.99 210.172V237.285C1421.99 270.315 1432.59 296.192 1466.93 296.192C1499.16 296.192 1511.87 270.315 1511.87 237.285Z" fill="black"/>
<path d="M1596.72 38.8355H1642.1V137.66C1651.02 124.943 1666.29 115.582 1693.84 115.582C1737.54 115.582 1771 137.66 1771 198.686V331.423H1726.06V203.808C1726.06 166.539 1709.11 155.941 1685.8 155.941C1657.82 155.941 1642.19 175.016 1642.19 203.456V331.512H1596.81V38.8355H1596.72Z" fill="black"/>
<path d="M434.963 188.748C420.174 152.91 397.199 122.971 369.117 100.077C379.595 82.7304 382.059 60.8928 373.696 40.7284C359.788 7.09135 321.231 -8.93462 287.605 5.06608C267.447 13.4313 253.713 30.6019 248.872 50.2382C212.868 46.54 175.456 51.471 139.629 66.3522C24.3117 114.166 -30.5297 246.424 17.2695 361.863C32.0582 397.702 55.0334 427.641 83.1146 450.535C72.639 467.883 70.1745 489.719 78.5372 509.884C92.4454 543.52 131.002 559.548 164.629 545.545C184.787 537.181 198.519 520.01 203.361 500.374C239.364 504.074 276.776 499.142 312.605 484.261C427.92 436.447 482.762 304.188 434.963 188.748Z" fill="#FF0C4B"/>
<path d="M255.471 204.417L254.855 205.913H336.192L243.764 298.37H325.982L164.45 459.952C167.619 463.033 170.172 466.733 171.933 471.046C179.327 489.01 170.788 509.614 152.919 517.011C143.94 520.798 134.257 520.446 125.982 517.011C121.845 515.337 117.971 512.872 114.802 509.614C111.545 506.443 108.817 502.482 106.968 497.991C99.4855 480.027 108.024 459.51 125.982 452.026C134.961 448.329 144.644 448.594 152.919 452.026L197.285 344.777V344.512H115.33L207.76 252.054H125.542L287.426 90.1216C284.433 87.1277 282.056 83.4293 280.295 79.2908C272.901 61.3277 281.35 40.8108 299.309 33.3262C308.287 29.628 317.971 29.892 326.246 33.4142C330.207 34.9994 333.905 37.3768 337.073 40.4588C340.507 43.7166 343.322 47.6792 345.26 52.346C352.655 70.3091 344.203 90.9142 326.246 98.3107C317.268 102.009 307.671 101.745 299.397 98.3107L255.471 204.329V204.417Z" fill="white"/>
<path d="M1059.99 519.07C1050.57 519.07 1043.83 514.576 1040.51 507.728H1039.87L1039.12 518H1030.88V439.997H1039.87V472.846H1040.51C1043.29 465.677 1050.78 461.076 1060.2 461.076C1074 461.076 1083.2 469.957 1083.2 486.007V493.604C1083.2 509.226 1074.64 519.07 1059.99 519.07ZM1057.63 510.938C1068.87 510.938 1074.11 503.555 1074.11 493.39V486.221C1074.11 475.093 1067.58 469.101 1057.52 469.101C1047.15 469.101 1039.87 476.27 1039.87 486.221V493.39C1039.87 503.555 1047.15 510.938 1057.63 510.938Z" fill="black"/>
<path d="M1040.51 507.728L1040.96 507.51L1040.82 507.228H1040.51V507.728ZM1039.87 507.728V507.228H1039.4L1039.37 507.692L1039.87 507.728ZM1039.12 518V518.5H1039.58L1039.62 518.036L1039.12 518ZM1030.88 518H1030.38V518.5H1030.88V518ZM1030.88 439.997V439.497H1030.38V439.997H1030.88ZM1039.87 439.997H1040.37V439.497H1039.87V439.997ZM1039.87 472.846H1039.37V473.346H1039.87V472.846ZM1040.51 472.846V473.346H1040.85L1040.98 473.027L1040.51 472.846ZM1059.99 518.57C1050.75 518.57 1044.19 514.174 1040.96 507.51L1040.06 507.946C1043.47 514.978 1050.39 519.57 1059.99 519.57V518.57ZM1040.51 507.228H1039.87V508.228H1040.51V507.228ZM1039.37 507.692L1038.62 517.964L1039.62 518.036L1040.37 507.764L1039.37 507.692ZM1039.12 517.5H1030.88V518.5H1039.12V517.5ZM1031.38 518V439.997H1030.38V518H1031.38ZM1030.88 440.497H1039.87V439.497H1030.88V440.497ZM1039.37 439.997V472.846H1040.37V439.997H1039.37ZM1039.87 473.346H1040.51V472.346H1039.87V473.346ZM1040.98 473.027C1043.67 466.092 1050.94 461.576 1060.2 461.576V460.576C1050.63 460.576 1042.92 465.262 1040.04 472.665L1040.98 473.027ZM1060.2 461.576C1066.99 461.576 1072.6 463.758 1076.52 467.868C1080.43 471.979 1082.7 478.076 1082.7 486.007H1083.7C1083.7 477.888 1081.38 471.519 1077.24 467.178C1073.1 462.834 1067.21 460.576 1060.2 460.576V461.576ZM1082.7 486.007V493.604H1083.7V486.007H1082.7ZM1082.7 493.604C1082.7 501.327 1080.59 507.562 1076.72 511.861C1072.86 516.152 1067.2 518.57 1059.99 518.57V519.57C1067.43 519.57 1073.38 517.066 1077.46 512.53C1081.54 508.001 1083.7 501.503 1083.7 493.604H1082.7ZM1057.63 511.438C1063.36 511.438 1067.63 509.549 1070.46 506.304C1073.28 503.07 1074.61 498.552 1074.61 493.39H1073.61C1073.61 498.393 1072.32 502.649 1069.71 505.647C1067.1 508.635 1063.13 510.438 1057.63 510.438V511.438ZM1074.61 493.39V486.221H1073.61V493.39H1074.61ZM1074.61 486.221C1074.61 480.559 1072.95 476.139 1069.94 473.134C1066.94 470.13 1062.65 468.601 1057.52 468.601V469.601C1062.45 469.601 1066.46 471.068 1069.23 473.842C1072.01 476.615 1073.61 480.755 1073.61 486.221H1074.61ZM1057.52 468.601C1046.88 468.601 1039.37 475.982 1039.37 486.221H1040.37C1040.37 476.558 1047.41 469.601 1057.52 469.601V468.601ZM1039.37 486.221V493.39H1040.37V486.221H1039.37ZM1039.37 493.39C1039.37 503.833 1046.87 511.438 1057.63 511.438V510.438C1047.42 510.438 1040.37 503.277 1040.37 493.39H1039.37Z" fill="black"/>
<path fill-rule="evenodd" clip-rule="evenodd" d="M1673.63 519.173C1666.15 519.173 1660.32 516.572 1656.13 511.369C1651.98 506.167 1649.91 498.901 1649.91 489.573C1649.91 480.136 1651.98 472.817 1656.13 467.614C1660.28 462.412 1666.12 459.811 1673.63 459.811C1683.54 459.811 1690.32 463.56 1693.98 471.059H1694.78V436.991H1706.21V518.097H1696.07L1694.78 507.871H1693.98C1692.15 511.459 1689.45 514.24 1685.87 516.213C1682.33 518.187 1678.25 519.173 1673.63 519.173ZM1677.28 509.809C1682.54 509.809 1686.76 508.248 1689.95 505.127C1693.17 502.005 1694.78 497.879 1694.78 492.748V486.236C1694.78 481.105 1693.17 476.979 1689.95 473.857C1686.76 470.736 1682.54 469.175 1677.28 469.175C1672.45 469.175 1668.62 470.503 1665.8 473.158C1662.97 475.777 1661.55 479.401 1661.55 484.029V494.954C1661.55 499.547 1662.93 503.171 1665.69 505.826C1668.44 508.481 1672.31 509.809 1677.28 509.809ZM1194.56 518.097H1182.59V437.745H1194.56V472.028H1237.99V437.745H1249.96V518.097H1237.99V482.038H1194.56V518.097ZM1281.68 510.939L1257.85 460.133H1270.14L1278.08 478.755L1286.89 499.906H1287.53L1296.55 478.755L1304.55 460.133H1316.78L1293.23 510.939L1281.68 536.503H1270.46L1281.68 510.939ZM1323.39 536.503H1334.71V507.172H1335.47C1339.22 514.742 1346 518.527 1355.81 518.527C1363.32 518.527 1369.17 515.926 1373.36 510.724C1377.55 505.521 1379.64 498.202 1379.64 488.766C1379.64 479.365 1377.55 472.063 1373.36 466.861C1369.17 461.622 1363.32 459.003 1355.81 459.003C1351.19 459.003 1347.1 460.008 1343.52 462.017C1339.97 463.991 1337.29 466.771 1335.47 470.359H1334.71L1333.37 460.133H1323.39V536.503ZM1363.64 505.234C1360.82 507.853 1356.99 509.163 1352.16 509.163C1346.93 509.163 1342.71 507.602 1339.49 504.481C1336.31 501.359 1334.71 497.233 1334.71 492.102V485.482C1334.71 480.352 1336.31 476.243 1339.49 473.158C1342.68 470.036 1346.9 468.475 1352.16 468.475C1357.1 468.475 1360.94 469.821 1363.7 472.512C1366.49 475.167 1367.89 478.755 1367.89 483.276V494.309C1367.89 498.937 1366.47 502.579 1363.64 505.234ZM1387.43 488.98C1387.43 479.616 1389.88 472.279 1394.78 466.969C1399.68 461.658 1406.35 459.003 1414.8 459.003C1422.78 459.003 1429.11 461.353 1433.8 466.054C1438.56 470.826 1440.94 477.266 1440.94 485.375C1440.94 487.276 1440.8 489.357 1440.51 491.618H1399.07V494.847C1399.07 499.44 1400.54 503.153 1403.47 505.988C1406.41 508.786 1410.26 510.185 1415.01 510.185C1418.77 510.185 1421.97 509.307 1424.62 507.549C1427.31 505.79 1429.1 503.422 1429.99 500.444H1441.15C1440.01 506.113 1437.04 510.652 1432.24 514.06C1427.49 517.469 1421.71 519.173 1414.91 519.173C1406.39 519.173 1399.68 516.465 1394.78 511.047C1389.88 505.629 1387.43 498.273 1387.43 488.98ZM1399.07 482.145V483.491H1429.51V481.607C1429.51 477.553 1428.15 474.288 1425.43 471.812C1422.71 469.301 1419.13 468.045 1414.69 468.045C1410.08 468.045 1406.32 469.355 1403.42 471.974C1400.52 474.557 1399.07 477.948 1399.07 482.145ZM1482.43 460.133H1462.41C1458.73 460.133 1456.13 460.995 1454.63 462.717C1453.16 464.439 1452.43 466.879 1452.43 470.036V518.097H1463.75V469.606H1482.43V460.133ZM1501.7 518.097H1490.38V460.133H1500.15L1501.7 470.897H1502.56C1505.86 462.968 1511.69 459.003 1520.06 459.003C1524.21 459.003 1527.76 460.133 1530.69 462.394C1533.62 464.618 1535.68 467.65 1536.86 471.489H1537.77C1541.32 463.165 1547.58 459.003 1556.56 459.003C1562.64 459.003 1567.35 461.048 1570.68 465.139C1574 469.193 1575.67 474.898 1575.67 482.253V518.097H1564.34V483.599C1564.34 473.588 1560.43 468.583 1552.59 468.583C1548.22 468.583 1544.82 470.234 1542.39 473.535C1539.96 476.8 1538.74 481.249 1538.74 486.882V518.097H1527.31V483.814C1527.31 473.66 1523.46 468.583 1515.77 468.583C1511.51 468.583 1508.09 470.234 1505.52 473.535C1502.97 476.835 1501.7 481.249 1501.7 486.774V518.097ZM1586.08 489.088C1586.08 498.381 1588.57 505.736 1593.54 511.154C1598.55 516.5 1605.41 519.173 1614.1 519.173C1622.83 519.173 1629.69 516.465 1634.66 511.047C1639.63 505.629 1642.12 498.309 1642.12 489.088C1642.12 479.724 1639.53 472.386 1634.34 467.076C1629.19 461.694 1622.44 459.003 1614.1 459.003C1605.51 459.003 1598.7 461.694 1593.65 467.076C1588.61 472.458 1586.08 479.796 1586.08 489.088ZM1597.62 493.824V484.837C1597.62 479.957 1599.15 476.028 1602.19 473.05C1605.23 470.072 1609.2 468.583 1614.1 468.583C1618.93 468.583 1622.87 470.09 1625.91 473.104C1628.95 476.082 1630.47 479.993 1630.47 484.837V493.824C1630.47 498.74 1628.95 502.615 1625.91 505.449C1622.91 508.284 1618.97 509.701 1614.1 509.701C1609.2 509.701 1605.23 508.302 1602.19 505.503C1599.15 502.669 1597.62 498.776 1597.62 493.824ZM1724.62 466.969C1719.72 472.279 1717.27 479.616 1717.27 488.98C1717.27 498.273 1719.72 505.629 1724.62 511.047C1729.53 516.465 1736.24 519.173 1744.75 519.173C1751.55 519.173 1757.33 517.469 1762.09 514.06C1766.89 510.652 1769.86 506.113 1771 500.444H1759.84C1758.94 503.422 1757.15 505.79 1754.47 507.549C1751.82 509.307 1748.62 510.185 1744.86 510.185C1740.1 510.185 1736.26 508.786 1733.32 505.988C1730.39 503.153 1728.92 499.44 1728.92 494.847V491.618H1770.36C1770.64 489.357 1770.79 487.276 1770.79 485.375C1770.79 477.266 1768.4 470.826 1763.65 466.054C1758.96 461.353 1752.63 459.003 1744.65 459.003C1736.2 459.003 1729.53 461.658 1724.62 466.969ZM1728.92 483.491V482.145C1728.92 477.948 1730.37 474.557 1733.27 471.974C1736.16 469.355 1739.92 468.045 1744.54 468.045C1748.97 468.045 1752.55 469.301 1755.27 471.812C1757.99 474.288 1759.35 477.553 1759.35 481.607V483.491H1728.92Z" fill="#060210"/>
<path fill-rule="evenodd" clip-rule="evenodd" d="M1112.45 512.56L1089 462H1101.1L1108.91 480.531L1117.58 501.58H1118.21L1127.09 480.531L1134.96 462H1147L1123.82 512.56L1112.45 538H1101.41L1112.45 512.56Z" fill="#060210"/>
</svg>
