<svg width="464" height="927" viewBox="0 0 464 927" fill="none" xmlns="http://www.w3.org/2000/svg">
<path d="M287.936 329.35L286.763 332.187H441.642L265.642 507.438H422.198L114.618 813.71C120.653 819.551 125.513 826.561 128.866 834.74C142.946 868.789 126.687 907.845 92.6604 921.865C75.5633 929.042 57.1253 928.374 41.3691 921.865C33.4911 918.693 26.1155 914.02 20.0812 907.844C13.8794 901.836 8.68344 894.325 5.16345 885.813C-9.08414 851.764 7.17493 812.875 41.3691 798.688C58.4662 791.678 76.9043 792.179 92.6604 798.688L177.14 595.397V594.896H21.0869L197.087 419.646H40.5307L348.782 112.706C343.083 107.031 338.557 100.021 335.205 92.1767C321.125 58.1279 337.216 19.2389 371.41 5.05193C388.507 -1.95811 406.945 -1.45736 422.702 5.21887C430.244 8.22317 437.284 12.7296 443.318 18.5713C449.855 24.7468 455.219 32.2575 458.907 41.1035C472.987 75.1523 456.896 114.208 422.702 128.228C405.604 135.238 387.334 134.738 371.578 128.228L287.936 329.183V329.35Z" fill="#F4F4F4"/>
</svg>
