<svg width="64" height="64" viewBox="0 0 64 64" fill="none" xmlns="http://www.w3.org/2000/svg">
<circle opacity="0.8" cx="32" cy="32" r="32" fill="url(#paint0_linear)"/>
<path d="M48.4 37.1C48.4 34.1488 46.4704 31.605 43.7746 30.6853C43.851 30.3521 43.9 29.9939 43.9 29.6C43.9 26.6738 41.5262 24.3 38.6 24.3C37.8014 24.3 37.0218 24.4746 36.3284 24.8111C34.8452 22.702 32.3743 21.3 29.6 21.3C25.026 21.3 21.3686 24.9672 21.3009 29.4728C18.6421 30.62 16.8 33.3016 16.8 36.35C16.8 40.5418 20.1581 43.9 24.35 43.9H41.6C45.319 43.9 48.4 40.874 48.4 37.1Z" stroke="white" stroke-width="1.6"/>
<path d="M37.6 21.6C35.9607 18.8431 32.4965 17.6 28.9143 17.6C23.5107 17.6 18.4 21.3456 18.4 26.4" stroke="url(#paint1_linear)" stroke-width="1.6"/>
<path d="M18.3999 28C16 28.8 14.1963 31.026 13.6 35.2C12.8 40.8 16.7999 47.2 22.4 47.2C28 47.2 32.7999 47.2 32.7999 47.2" stroke="url(#paint2_linear)" stroke-width="1.6"/>
<path d="M47.2 28C49.9138 29.9892 52 32.3532 52 36.8C52 42.4 47.9465 47.2 43.2 47.2C40 47.2 35.2 47.2 35.2 47.2" stroke="url(#paint3_linear)" stroke-width="1.6"/>
<defs>
<linearGradient id="paint0_linear" x1="3.09199e-07" y1="31.9994" x2="64" y2="31.9994" gradientUnits="userSpaceOnUse">
<stop stop-color="#FF4200"/>
<stop offset="1" stop-color="#E50695"/>
</linearGradient>
<linearGradient id="paint1_linear" x1="19.2" y1="25.6" x2="35.2" y2="19.2" gradientUnits="userSpaceOnUse">
<stop stop-color="white"/>
<stop offset="1" stop-color="white" stop-opacity="0"/>
</linearGradient>
<linearGradient id="paint2_linear" x1="34.4" y1="47.2" x2="15.2" y2="30.4" gradientUnits="userSpaceOnUse">
<stop stop-color="white"/>
<stop offset="1" stop-color="white" stop-opacity="0"/>
</linearGradient>
<linearGradient id="paint3_linear" x1="48.7999" y1="28" x2="38.3999" y2="48.8" gradientUnits="userSpaceOnUse">
<stop stop-color="white"/>
<stop offset="1" stop-color="white" stop-opacity="0"/>
</linearGradient>
</defs>
</svg>
