<svg width="32" height="32" viewBox="0 0 32 32" fill="none" xmlns="http://www.w3.org/2000/svg">
<circle cx="16" cy="16" r="16" fill="url(#paint0_linear)"/>
<g clip-path="url(#clip0)">
<path d="M11.5664 13.2183L15.3218 11.0269L14.8648 10.2436L11.1085 12.435L11.5654 13.2183H11.5664ZM11.0133 17.8133V14.1867H10.1066V17.8133H11.0133ZM16.6781 11.0269L20.4345 13.2183L20.8914 12.435L17.1351 10.2436L16.6781 11.0269ZM20.9866 14.1867V17.8133H21.8933V14.1867H20.9866ZM20.7581 18.5931L16.6781 20.9731L17.1351 21.7564L21.2151 19.3764L20.7581 18.5931ZM15.3218 20.9731L11.5654 18.7817L11.1085 19.565L14.8648 21.7564L15.3218 20.9731ZM15.1694 10.9889L10.6361 17.7888L11.3905 18.2911L15.9238 11.4911L15.1694 10.9889ZM21.3638 17.7888L16.8305 10.9889L16.0761 11.4911L20.6094 18.2911L21.3638 17.7888ZM11.4666 19.1733H20.5333V18.2667H11.4666V19.1733ZM16 11.0133C15.8797 11.0133 15.7644 10.9656 15.6794 10.8806C15.5944 10.7955 15.5466 10.6802 15.5466 10.56H14.64C14.64 10.9207 14.7832 11.2666 15.0383 11.5217C15.2933 11.7767 15.6393 11.92 16 11.92V11.0133ZM16.4533 10.56C16.4533 10.6802 16.4055 10.7955 16.3205 10.8806C16.2355 10.9656 16.1202 11.0133 16 11.0133V11.92C16.3606 11.92 16.7066 11.7767 16.9616 11.5217C17.2167 11.2666 17.36 10.9207 17.36 10.56H16.4533ZM16 10.1067C16.1202 10.1067 16.2355 10.1544 16.3205 10.2394C16.4055 10.3245 16.4533 10.4398 16.4533 10.56H17.36C17.36 10.1993 17.2167 9.85338 16.9616 9.59833C16.7066 9.34328 16.3606 9.2 16 9.2V10.1067ZM16 9.2C15.6393 9.2 15.2933 9.34328 15.0383 9.59833C14.7832 9.85338 14.64 10.1993 14.64 10.56H15.5466C15.5466 10.4398 15.5944 10.3245 15.6794 10.2394C15.7644 10.1544 15.8797 10.1067 16 10.1067V9.2ZM21.44 13.7333C21.3197 13.7333 21.2044 13.6856 21.1194 13.6006C21.0344 13.5155 20.9866 13.4002 20.9866 13.28H20.08C20.08 13.6407 20.2232 13.9866 20.4783 14.2417C20.7333 14.4967 21.0793 14.64 21.44 14.64V13.7333ZM21.8933 13.28C21.8933 13.4002 21.8455 13.5155 21.7605 13.6006C21.6755 13.6856 21.5602 13.7333 21.44 13.7333V14.64C21.8006 14.64 22.1466 14.4967 22.4016 14.2417C22.6567 13.9866 22.8 13.6407 22.8 13.28H21.8933ZM21.44 12.8267C21.5602 12.8267 21.6755 12.8744 21.7605 12.9594C21.8455 13.0445 21.8933 13.1598 21.8933 13.28H22.8C22.8 12.9193 22.6567 12.5734 22.4016 12.3183C22.1466 12.0633 21.8006 11.92 21.44 11.92V12.8267ZM21.44 11.92C21.0793 11.92 20.7333 12.0633 20.4783 12.3183C20.2232 12.5734 20.08 12.9193 20.08 13.28H20.9866C20.9866 13.1598 21.0344 13.0445 21.1194 12.9594C21.2044 12.8744 21.3197 12.8267 21.44 12.8267V11.92ZM21.44 19.1733C21.3197 19.1733 21.2044 19.1256 21.1194 19.0406C21.0344 18.9555 20.9866 18.8402 20.9866 18.72H20.08C20.08 19.0807 20.2232 19.4266 20.4783 19.6817C20.7333 19.9367 21.0793 20.08 21.44 20.08V19.1733ZM21.8933 18.72C21.8933 18.8402 21.8455 18.9555 21.7605 19.0406C21.6755 19.1256 21.5602 19.1733 21.44 19.1733V20.08C21.8006 20.08 22.1466 19.9367 22.4016 19.6817C22.6567 19.4266 22.8 19.0807 22.8 18.72H21.8933ZM21.44 18.2667C21.5602 18.2667 21.6755 18.3144 21.7605 18.3994C21.8455 18.4845 21.8933 18.5998 21.8933 18.72H22.8C22.8 18.3593 22.6567 18.0134 22.4016 17.7583C22.1466 17.5033 21.8006 17.36 21.44 17.36V18.2667ZM21.44 17.36C21.0793 17.36 20.7333 17.5033 20.4783 17.7583C20.2232 18.0134 20.08 18.3593 20.08 18.72H20.9866C20.9866 18.5998 21.0344 18.4845 21.1194 18.3994C21.2044 18.3144 21.3197 18.2667 21.44 18.2667V17.36ZM16 21.8933C15.8797 21.8933 15.7644 21.8456 15.6794 21.7606C15.5944 21.6755 15.5466 21.5602 15.5466 21.44H14.64C14.64 21.8007 14.7832 22.1466 15.0383 22.4017C15.2933 22.6567 15.6393 22.8 16 22.8V21.8933ZM16.4533 21.44C16.4533 21.5602 16.4055 21.6755 16.3205 21.7606C16.2355 21.8456 16.1202 21.8933 16 21.8933V22.8C16.3606 22.8 16.7066 22.6567 16.9616 22.4017C17.2167 22.1466 17.36 21.8007 17.36 21.44H16.4533ZM16 20.9867C16.1202 20.9867 16.2355 21.0344 16.3205 21.1194C16.4055 21.2045 16.4533 21.3198 16.4533 21.44H17.36C17.36 21.0793 17.2167 20.7334 16.9616 20.4783C16.7066 20.2233 16.3606 20.08 16 20.08V20.9867ZM16 20.08C15.6393 20.08 15.2933 20.2233 15.0383 20.4783C14.7832 20.7334 14.64 21.0793 14.64 21.44H15.5466C15.5466 21.3198 15.5944 21.2045 15.6794 21.1194C15.7644 21.0344 15.8797 20.9867 16 20.9867V20.08ZM10.56 19.1733C10.4397 19.1733 10.3244 19.1256 10.2394 19.0406C10.1544 18.9555 10.1066 18.8402 10.1066 18.72H9.19995C9.19995 19.0807 9.34324 19.4266 9.59829 19.6817C9.85334 19.9367 10.1993 20.08 10.56 20.08V19.1733ZM11.0133 18.72C11.0133 18.8402 10.9655 18.9555 10.8805 19.0406C10.7955 19.1256 10.6802 19.1733 10.56 19.1733V20.08C10.9206 20.08 11.2666 19.9367 11.5216 19.6817C11.7767 19.4266 11.92 19.0807 11.92 18.72H11.0133ZM10.56 18.2667C10.6802 18.2667 10.7955 18.3144 10.8805 18.3994C10.9655 18.4845 11.0133 18.5998 11.0133 18.72H11.92C11.92 18.3593 11.7767 18.0134 11.5216 17.7583C11.2666 17.5033 10.9206 17.36 10.56 17.36V18.2667ZM10.56 17.36C10.1993 17.36 9.85334 17.5033 9.59829 17.7583C9.34324 18.0134 9.19995 18.3593 9.19995 18.72H10.1066C10.1066 18.5998 10.1544 18.4845 10.2394 18.3994C10.3244 18.3144 10.4397 18.2667 10.56 18.2667V17.36ZM10.56 13.7333C10.4397 13.7333 10.3244 13.6856 10.2394 13.6006C10.1544 13.5155 10.1066 13.4002 10.1066 13.28H9.19995C9.19995 13.6407 9.34324 13.9866 9.59829 14.2417C9.85334 14.4967 10.1993 14.64 10.56 14.64V13.7333ZM11.0133 13.28C11.0133 13.4002 10.9655 13.5155 10.8805 13.6006C10.7955 13.6856 10.6802 13.7333 10.56 13.7333V14.64C10.9206 14.64 11.2666 14.4967 11.5216 14.2417C11.7767 13.9866 11.92 13.6407 11.92 13.28H11.0133ZM10.56 12.8267C10.6802 12.8267 10.7955 12.8744 10.8805 12.9594C10.9655 13.0445 11.0133 13.1598 11.0133 13.28H11.92C11.92 12.9193 11.7767 12.5734 11.5216 12.3183C11.2666 12.0633 10.9206 11.92 10.56 11.92V12.8267ZM10.56 11.92C10.1993 11.92 9.85334 12.0633 9.59829 12.3183C9.34324 12.5734 9.19995 12.9193 9.19995 13.28H10.1066C10.1066 13.1598 10.1544 13.0445 10.2394 12.9594C10.3244 12.8744 10.4397 12.8267 10.56 12.8267V11.92Z" fill="white"/>
</g>
<path d="M19.9999 10.4C19.9999 8.19086 18.2091 6.4 15.9999 6.4C13.7908 6.4 11.9999 8.19086 11.9999 10.4" stroke="url(#paint1_linear)" stroke-width="0.8"/>
<path d="M19.9999 21.6C19.9999 23.8091 18.2091 25.6 15.9999 25.6C13.7908 25.6 11.9999 23.8091 11.9999 21.6" stroke="url(#paint2_linear)" stroke-width="0.8"/>
<path d="M23.2 10.4C23.2 6.42355 19.9764 3.2 16 3.2C12.0235 3.2 8.79999 6.42355 8.79999 10.4" stroke="url(#paint3_linear)" stroke-width="0.8"/>
<path d="M23.1999 21.6C23.1999 25.5765 19.9764 28.8 15.9999 28.8C12.0235 28.8 8.79993 25.5765 8.79993 21.6" stroke="url(#paint4_linear)" stroke-width="0.8"/>
<defs>
<linearGradient id="paint0_linear" x1="0" y1="16" x2="32" y2="16" gradientUnits="userSpaceOnUse">
<stop stop-color="#FFAB6F"/>
<stop offset="1" stop-color="#FE7385"/>
</linearGradient>
<linearGradient id="paint1_linear" x1="15.9999" y1="6.4" x2="15.9999" y2="9.9" gradientUnits="userSpaceOnUse">
<stop stop-color="white"/>
<stop offset="1" stop-color="white" stop-opacity="0"/>
</linearGradient>
<linearGradient id="paint2_linear" x1="15.9999" y1="25.6" x2="15.9999" y2="22.1" gradientUnits="userSpaceOnUse">
<stop stop-color="white"/>
<stop offset="1" stop-color="white" stop-opacity="0"/>
</linearGradient>
<linearGradient id="paint3_linear" x1="16" y1="3.2" x2="16" y2="8.8" gradientUnits="userSpaceOnUse">
<stop stop-color="white"/>
<stop offset="1" stop-color="white" stop-opacity="0"/>
</linearGradient>
<linearGradient id="paint4_linear" x1="15.9999" y1="28.8" x2="15.9999" y2="23.2" gradientUnits="userSpaceOnUse">
<stop stop-color="white"/>
<stop offset="1" stop-color="white" stop-opacity="0"/>
</linearGradient>
<clipPath id="clip0">
<rect width="13.6" height="13.6" fill="white" transform="translate(9.19995 9.2)"/>
</clipPath>
</defs>
</svg>
