<svg width="34" height="40" viewBox="0 0 34 40" fill="none" xmlns="http://www.w3.org/2000/svg">
<path d="M27.1983 7.19828C27.5754 6.50862 27.7802 5.71121 27.7802 4.85991C27.7802 2.17672 25.6034 0 22.9203 0C20.6358 0 18.7177 1.57328 18.1897 3.69612C17.7371 3.67457 17.2845 3.64224 16.8319 3.64224C7.53233 3.64224 0 11.1638 0 20.4741C0 25.0431 1.8319 29.1918 4.78448 32.2198C4.17026 33.0388 3.80388 34.0517 3.80388 35.1401C3.80388 37.8233 5.9806 40 8.66379 40C10.7328 40 12.4892 38.6961 13.2112 36.8858C14.3858 37.1552 15.5819 37.2845 16.8319 37.2845C26.1315 37.2845 33.6638 29.7629 33.6638 20.4526C33.6853 15.0647 31.1638 10.2802 27.1983 7.19828ZM22.9418 7.83405C22.6724 7.83405 22.4353 7.8125 22.1983 7.72629L20.1832 13.5991L23.1358 13.125L18.9871 19.903L22.4461 19.0517L10.7759 32.9526C11.3578 33.4806 11.7026 34.2565 11.7026 35.1293C11.7026 36.778 10.3772 38.1034 8.72845 38.1034C7.07974 38.1034 5.75431 36.778 5.75431 35.1293C5.75431 33.4806 7.07974 32.1552 8.72845 32.1552C9.1056 32.1552 9.47198 32.2306 9.81681 32.3707L13.1142 25.1616L9.89224 26.0345L15.1293 18.5345L11.9073 19.3103L21.0345 7.16595C20.3664 6.6056 19.9677 5.78664 19.9677 4.88147C19.9677 3.23276 21.2931 1.90733 22.9418 1.90733C24.5905 1.90733 25.9159 3.23276 25.9159 4.88147C25.9267 6.49784 24.5905 7.83405 22.9418 7.83405Z" fill="url(#paint0_linear)"/>
<defs>
<linearGradient id="paint0_linear" x1="0.00334052" y1="19.9946" x2="33.6605" y2="19.9946" gradientUnits="userSpaceOnUse">
<stop stop-color="#FF4200"/>
<stop offset="1" stop-color="#E50695"/>
</linearGradient>
</defs>
</svg>
