<?xml version="1.0" encoding="utf-8"?>
<!-- Generator: Adobe Illustrator 16.0.0, SVG Export Plug-In . SVG Version: 6.00 Build 0)  -->
<!DOCTYPE svg PUBLIC "-//W3C//DTD SVG 1.1//EN" "http://www.w3.org/Graphics/SVG/1.1/DTD/svg11.dtd">
<svg version="1.1" id="Layer_1" xmlns="http://www.w3.org/2000/svg" xmlns:xlink="http://www.w3.org/1999/xlink" x="0px" y="0px"
	 width="32px" height="32px" viewBox="0 0 32 32" enable-background="new 0 0 32 32" xml:space="preserve">
<linearGradient id="SVGID_1_" gradientUnits="userSpaceOnUse" x1="0" y1="17" x2="32" y2="17" gradientTransform="matrix(1 0 0 -1 0 33)">
	<stop  offset="0" style="stop-color:#FFAB6F"/>
	<stop  offset="1" style="stop-color:#FE7385"/>
</linearGradient>
<circle fill="url(#SVGID_1_)" cx="16" cy="16" r="16"/>
<path fill="none" stroke="#FFFFFF" stroke-width="0.8" d="M21.3,14.425v-0.764l-0.425,0.294c0.243-0.226,0.425-0.515,0.425-0.866
	v-1.055c0-0.417-0.257-0.749-0.569-0.992c-0.316-0.246-0.75-0.451-1.25-0.615C18.479,10.097,17.122,9.9,15.65,9.9
	c-1.483,0-2.84,0.197-3.84,0.527c-0.498,0.165-0.929,0.369-1.245,0.616C10.254,11.287,10,11.618,10,12.034v1.055
	c0,0.341,0.17,0.624,0.403,0.848L10,13.651v0.773v2.414c0,0.341,0.17,0.624,0.403,0.848L10,17.401v0.773v2.414
	c0,0.417,0.255,0.747,0.566,0.989c0.316,0.244,0.748,0.446,1.246,0.607c1,0.324,2.355,0.515,3.838,0.515
	c1.471,0,2.827-0.19,3.829-0.515c0.5-0.161,0.934-0.362,1.25-0.607c0.313-0.24,0.571-0.57,0.571-0.989v-2.414V17.41l-0.425,0.295
	c0.243-0.227,0.425-0.516,0.425-0.866V14.425z"/>
<linearGradient id="SVGID_2_" gradientUnits="userSpaceOnUse" x1="21.4648" y1="29.5664" x2="2.664" y2="19.166" gradientTransform="matrix(1 0 0 -1 0 33)">
	<stop  offset="0" style="stop-color:#FFFFFF"/>
	<stop  offset="1" style="stop-color:#FFFFFF;stop-opacity:0"/>
</linearGradient>
<path fill="none" stroke="url(#SVGID_2_)" stroke-width="0.8" d="M4,16C4,9.373,9.373,4,16,4c2.885,0,5.53,1.018,7.6,2.713"/>
<linearGradient id="SVGID_3_" gradientUnits="userSpaceOnUse" x1="22.2178" y1="6.4395" x2="27.0178" y2="24.8395" gradientTransform="matrix(1 0 0 -1 0 33)">
	<stop  offset="0" style="stop-color:#FFFFFF"/>
	<stop  offset="1" style="stop-color:#FFFFFF;stop-opacity:0"/>
</linearGradient>
<path fill="none" stroke="url(#SVGID_3_)" stroke-width="0.8" d="M23.705,6.8C26.33,9.001,28,12.306,28,16
	c0,4.441-2.413,8.32-6,10.395"/>
<linearGradient id="SVGID_4_" gradientUnits="userSpaceOnUse" x1="4.6826" y1="15.4595" x2="19.082" y2="3.86" gradientTransform="matrix(1 0 0 -1 0 33)">
	<stop  offset="0" style="stop-color:#FFFFFF"/>
	<stop  offset="1" style="stop-color:#FFFFFF;stop-opacity:0"/>
</linearGradient>
<path fill="none" stroke="url(#SVGID_4_)" stroke-width="0.8" d="M4,16c0,6.627,5.373,12,12,12c2.182,0,4.228-0.582,5.99-1.6"/>
<path fill="none" stroke="#FFFFFF" stroke-width="0.8" d="M10.375,13.875c1.063,1.406,8.813,1.219,10.719-0.094"/>
<path fill="none" stroke="#FFFFFF" stroke-width="0.8" d="M10.313,17.583c1.063,1.406,8.813,1.219,10.719-0.094"/>
</svg>
