<svg width="64" height="64" viewBox="0 0 64 64" fill="none" xmlns="http://www.w3.org/2000/svg">
<circle cx="32" cy="32" r="32" fill="url(#paint0_linear)" fill-opacity="0.8"/>
<path d="M20.8 20.5737C23.686 17.7445 27.6393 16 32 16C40.8366 16 48 23.1634 48 32C48 37.2346 45.4863 41.8821 41.6 44.8012" stroke="url(#paint1_linear)" stroke-width="1.6"/>
<path d="M20.8 20.5737C17.8378 23.4776 16 27.5242 16 32C16 40.8366 23.1634 48 32 48C35.6019 48 38.9259 46.8098 41.6 44.8012" stroke="url(#paint2_linear)" stroke-width="1.6"/>
<circle cx="32" cy="32" r="12.2" stroke="white" stroke-width="1.6"/>
<path d="M37.2 32C37.2 35.501 36.5434 38.6317 35.5163 40.8571C34.4578 43.1506 33.1567 44.2 32 44.2C30.8433 44.2 29.5422 43.1506 28.4837 40.8571C27.4566 38.6317 26.8 35.501 26.8 32C26.8 28.499 27.4566 25.3683 28.4837 23.1429C29.5422 20.8494 30.8433 19.8 32 19.8C33.1567 19.8 34.4578 20.8494 35.5163 23.1429C36.5434 25.3683 37.2 28.499 37.2 32Z" stroke="white" stroke-width="1.6"/>
<path d="M21 28H43M43 37H21" stroke="white" stroke-width="1.6"/>
<defs>
<linearGradient id="paint0_linear" x1="3.09199e-07" y1="31.9994" x2="64" y2="31.9994" gradientUnits="userSpaceOnUse">
<stop stop-color="#FF4200"/>
<stop offset="1" stop-color="#E50695"/>
</linearGradient>
<linearGradient id="paint1_linear" x1="24" y1="19.2" x2="42.4" y2="44" gradientUnits="userSpaceOnUse">
<stop stop-color="white" stop-opacity="0"/>
<stop offset="0.765625" stop-color="white"/>
</linearGradient>
<linearGradient id="paint2_linear" x1="20" y1="21.6" x2="34.4" y2="48" gradientUnits="userSpaceOnUse">
<stop stop-color="white"/>
<stop offset="1" stop-color="white" stop-opacity="0"/>
</linearGradient>
</defs>
</svg>
