<svg xmlns="http://www.w3.org/2000/svg" xmlns:xlink="http://www.w3.org/1999/xlink" width="36" height="48" viewBox="0 0 36 48">
  <defs>
    <linearGradient id="icon-pin-a" x1="21.875%" x2="78.125%" y1="0%" y2="100%">
      <stop offset="0%" stop-color="#FF1800"/>
      <stop offset="100%" stop-color="#FF009B"/>
    </linearGradient>
    <path id="icon-pin-b" d="M16.150125,47.0315625 C2.52843748,27.2841563 -2.81249868e-08,25.2574688 -2.81249868e-08,18 C-2.81249868e-08,8.05884373 8.05884373,-3.75000582e-08 18,-3.75000582e-08 C27.9411563,-3.75000582e-08 36,8.05884373 36,18 C36,25.2574688 33.4715625,27.2841563 19.849875,47.0315625 C18.9559688,48.322875 17.0439375,48.3227813 16.150125,47.0315625 Z M18,25.5 C22.1421563,25.5 25.5,22.1421562 25.5,18 C25.5,13.8578437 22.1421563,10.5 18,10.5 C13.8578437,10.5 10.5,13.8578437 10.5,18 C10.5,22.1421562 13.8578437,25.5 18,25.5 Z"/>
  </defs>
  <use fill="url(#icon-pin-a)" xlink:href="#icon-pin-b"/>
</svg>
