<svg xmlns="http://www.w3.org/2000/svg" width="64" height="64" viewBox="0 0 64 64">
  <defs>
    <linearGradient id="icon-play-a" x1="11.74%" x2="72.626%" y1="0%" y2="83.197%">
      <stop offset="0%" stop-color="#FF1800"/>
      <stop offset="100%" stop-color="#FF009B"/>
    </linearGradient>
  </defs>
  <g fill="none" transform="translate(1 1)">
    <path fill="#FFF" fill-opacity=".5" d="M62,31 C62,13.875 48.125,-4.84374709e-08 31,-4.84374709e-08 C13.875,-4.84374709e-08 -4.84375278e-08,13.875 -4.84375278e-08,31 C-4.84375278e-08,48.125 13.875,62 31,62 C48.125,62 62,48.125 62,31 Z M5.99999996,31 C5.99999996,17.1875 17.1875,5.99999996 31,5.99999996 C44.8125,5.99999996 56,17.1875 56,31 C56,44.8125 44.8125,56 31,56 C17.1875,56 5.99999996,44.8125 5.99999996,31 Z"/>
    <path fill="url(#icon-play-a)" d="M45.4625,28.75 L23.4625,15.375 C21.4875,14.275 19,15.6875 19,18 L19,44 C19,46.3 21.475,47.725 23.4625,46.625 L45.4625,34 C47.5125,32.8625 47.5125,29.9 45.4625,28.75 Z"/>
  </g>
</svg>
