<svg width="64" height="64" viewBox="0 0 64 64" fill="none" xmlns="http://www.w3.org/2000/svg">
<circle opacity="0.8" cx="32" cy="32" r="32" fill="url(#paint0_linear)"/>
<path d="M25.125 34.9H29.6455L27.7213 43.0569L27.7182 43.0703L27.7155 43.0837C27.4817 44.2525 28.3406 45.4 29.5781 45.4C30.2307 45.4 30.912 45.1017 31.2654 44.42L39.4938 30.2074C40.3138 28.9381 39.3029 27.3 37.875 27.3H33.5474L35.212 22.3061L35.2218 22.2769L35.2292 22.2471C35.5377 21.0133 34.6201 19.8 33.375 19.8H26.625C25.7051 19.8 24.8016 20.4809 24.7047 21.4955L23.207 32.7286C23.0467 33.9309 23.958 34.9 25.125 34.9Z" stroke="white" stroke-width="1.6"/>
<path d="M23.8675 17.6C22.9226 17.6 22.0564 18.25 21.9777 19.1166L19.2255 35.2C19.068 36.2833 19.6443 37.6 20.8254 37.6L25.9777 37.5166" stroke="url(#paint1_linear)" stroke-width="1.6"/>
<path d="M38.4 24.15H44.35C45.475 24.15 46.225 25.4625 45.6 26.4L35.2 45.25" stroke="url(#paint2_linear)" stroke-width="1.6"/>
<defs>
<linearGradient id="paint0_linear" x1="3.09199e-07" y1="31.9994" x2="64" y2="31.9994" gradientUnits="userSpaceOnUse">
<stop stop-color="#FF4200"/>
<stop offset="1" stop-color="#E50695"/>
</linearGradient>
<linearGradient id="paint1_linear" x1="20.4278" y1="42.4766" x2="19.5797" y2="17.5111" gradientUnits="userSpaceOnUse">
<stop stop-color="white"/>
<stop offset="1" stop-color="white" stop-opacity="0"/>
</linearGradient>
<linearGradient id="paint2_linear" x1="40.8132" y1="15.9375" x2="40.8132" y2="45.25" gradientUnits="userSpaceOnUse">
<stop stop-color="white"/>
<stop offset="1" stop-color="white" stop-opacity="0"/>
</linearGradient>
</defs>
</svg>
