<svg width="1284" height="282" viewBox="0 0 1284 282" fill="none" xmlns="http://www.w3.org/2000/svg">
<path d="M1265.66 7.99682C1265.66 11.8762 1268.8 15.021 1272.68 15.021C1276.56 15.021 1279.71 11.8762 1279.71 7.99682C1279.71 4.11748 1276.56 0.972656 1272.68 0.972656C1268.8 0.972656 1265.66 4.11748 1265.66 7.99682Z" fill="#F4F4F4"/>
<path d="M1267.55 113C1267.55 115.831 1269.85 118.125 1272.68 118.125C1275.51 118.125 1277.8 115.831 1277.8 113C1277.8 110.169 1275.51 107.874 1272.68 107.874C1269.85 107.874 1267.55 110.169 1267.55 113Z" fill="#F4F4F4"/>
<path d="M1267.02 165.504C1267.02 168.628 1269.55 171.161 1272.68 171.161C1275.8 171.161 1278.34 168.628 1278.34 165.504C1278.34 162.38 1275.8 159.847 1272.68 159.847C1269.55 159.847 1267.02 162.38 1267.02 165.504Z" fill="#F4F4F4"/>
<path d="M1262.67 217.989C1262.67 223.524 1267.16 228.012 1272.69 228.012C1278.23 228.012 1282.72 223.524 1282.72 217.989C1282.72 212.453 1278.23 207.965 1272.69 207.965C1267.16 207.965 1262.67 212.453 1262.67 217.989Z" fill="#F4F4F4"/>
<path d="M1262.12 270.507C1262.12 276.337 1266.84 281.063 1272.67 281.063C1278.5 281.063 1283.23 276.337 1283.23 270.507C1283.23 264.678 1278.5 259.952 1272.67 259.952C1266.84 259.952 1262.12 264.678 1262.12 270.507Z" fill="#F4F4F4"/>
<path d="M1214.65 7.99179C1214.65 11.2001 1217.25 13.801 1220.46 13.801C1223.67 13.801 1226.27 11.2001 1226.27 7.99179C1226.27 4.78347 1223.67 2.18262 1220.46 2.18262C1217.25 2.18262 1214.65 4.78347 1214.65 7.99179Z" fill="#F4F4F4"/>
<path d="M1215.25 60.5015C1215.25 63.3743 1217.58 65.7032 1220.45 65.7032C1223.33 65.7032 1225.66 63.3743 1225.66 60.5015C1225.66 57.6287 1223.33 55.2998 1220.45 55.2998C1217.58 55.2998 1215.25 57.6287 1215.25 60.5015Z" fill="#F4F4F4"/>
<path d="M1216.73 165.5C1216.73 167.555 1218.4 169.221 1220.45 169.221C1222.51 169.221 1224.18 167.555 1224.18 165.5C1224.18 163.445 1222.51 161.779 1220.45 161.779C1218.4 161.779 1216.73 163.445 1216.73 165.5Z" fill="#F4F4F4"/>
<path d="M1215.22 218.006C1215.22 220.9 1217.56 223.246 1220.45 223.246C1223.35 223.246 1225.69 220.9 1225.69 218.006C1225.69 215.112 1223.35 212.767 1220.45 212.767C1217.56 212.767 1215.22 215.112 1215.22 218.006Z" fill="#F4F4F4"/>
<path d="M1213.73 270.511C1213.73 274.223 1216.74 277.232 1220.45 277.232C1224.16 277.232 1227.17 274.223 1227.17 270.511C1227.17 266.8 1224.16 263.791 1220.45 263.791C1216.74 263.791 1213.73 266.8 1213.73 270.511Z" fill="#F4F4F4"/>
<path d="M1160.28 7.97337C1160.28 12.3769 1163.85 15.9467 1168.26 15.9467C1172.66 15.9467 1176.23 12.3769 1176.23 7.97337C1176.23 3.5698 1172.66 -1.56041e-07 1168.26 -3.48527e-07C1163.85 -5.41013e-07 1160.28 3.5698 1160.28 7.97337Z" fill="#F4F4F4"/>
<path d="M1162.88 60.4942C1162.88 63.4509 1165.28 65.8477 1168.24 65.8477C1171.19 65.8477 1173.59 63.4509 1173.59 60.4942C1173.59 57.5375 1171.19 55.1406 1168.24 55.1406C1165.28 55.1406 1162.88 57.5375 1162.88 60.4942Z" fill="#F4F4F4"/>
<path d="M1163.88 112.984C1163.88 115.395 1165.84 117.35 1168.25 117.35C1170.66 117.35 1172.61 115.395 1172.61 112.984C1172.61 110.572 1170.66 108.617 1168.25 108.617C1165.84 108.617 1163.88 110.572 1163.88 112.984Z" fill="#F4F4F4"/>
<path d="M1152.97 165.504C1152.97 173.933 1159.8 180.767 1168.23 180.767C1176.66 180.767 1183.49 173.933 1183.49 165.504C1183.49 157.074 1176.66 150.24 1168.23 150.24C1159.8 150.24 1152.97 157.074 1152.97 165.504Z" fill="#F4F4F4"/>
<path d="M1163.44 270.476C1163.44 273.139 1165.6 275.298 1168.26 275.298C1170.92 275.298 1173.08 273.139 1173.08 270.476C1173.08 267.813 1170.92 265.654 1168.26 265.654C1165.6 265.654 1163.44 267.813 1163.44 270.476Z" fill="#F4F4F4"/>
<path d="M1108.17 7.98153C1108.17 12.3222 1111.68 15.841 1116.03 15.841C1120.37 15.841 1123.88 12.3222 1123.88 7.98154C1123.88 3.64087 1120.37 0.12207 1116.03 0.12207C1111.68 0.12207 1108.17 3.64087 1108.17 7.98153Z" fill="#F4F4F4"/>
<path d="M1109.51 60.5063C1109.51 64.092 1112.41 66.9989 1116 66.9989C1119.59 66.9989 1122.49 64.092 1122.49 60.5063C1122.49 56.9205 1119.59 54.0137 1116 54.0137C1112.41 54.0137 1109.51 56.9205 1109.51 60.5063Z" fill="#F4F4F4"/>
<path d="M1110.25 112.987C1110.25 116.174 1112.83 118.758 1116.02 118.758C1119.21 118.758 1121.79 116.174 1121.79 112.987C1121.79 109.8 1119.21 107.216 1116.02 107.216C1112.83 107.216 1110.25 109.8 1110.25 112.987Z" fill="#F4F4F4"/>
<path d="M1110.85 165.5C1110.85 168.351 1113.16 170.663 1116.01 170.663C1118.86 170.663 1121.17 168.351 1121.17 165.5C1121.17 162.648 1118.86 160.336 1116.01 160.336C1113.16 160.336 1110.85 162.648 1110.85 165.5Z" fill="#F4F4F4"/>
<path d="M1111.97 217.976C1111.97 220.219 1113.79 222.038 1116.04 222.038C1118.28 222.038 1120.1 220.219 1120.1 217.976C1120.1 215.732 1118.28 213.913 1116.04 213.913C1113.79 213.913 1111.97 215.732 1111.97 217.976Z" fill="#F4F4F4"/>
<path d="M1057 60.4878C1057 64.2413 1060.04 67.2841 1063.8 67.2841C1067.55 67.2841 1070.59 64.2413 1070.59 60.4878C1070.59 56.7342 1067.55 53.6914 1063.8 53.6914C1060.04 53.6914 1057 56.7342 1057 60.4878Z" fill="#F4F4F4"/>
<path d="M17.5737 7.99682C17.5737 11.8762 14.4289 15.021 10.5495 15.021C6.67021 15.021 3.52539 11.8762 3.52539 7.99682C3.52539 4.11748 6.67021 0.972656 10.5496 0.972657C14.4289 0.972657 17.5737 4.11748 17.5737 7.99682Z" fill="#F4F4F4"/>
<path d="M15.6792 113C15.6792 115.831 13.3843 118.126 10.5535 118.125C7.72261 118.125 5.42773 115.831 5.42773 113C5.42773 110.169 7.72261 107.874 10.5535 107.874C13.3843 107.874 15.6792 110.169 15.6792 113Z" fill="#F4F4F4"/>
<path d="M16.2091 165.504C16.2091 168.628 13.6763 171.161 10.5518 171.161C7.42739 171.161 4.89453 168.628 4.89453 165.504C4.89453 162.38 7.42739 159.847 10.5518 159.847C13.6763 159.847 16.2091 162.38 16.2091 165.504Z" fill="#F4F4F4"/>
<path d="M20.562 217.989C20.562 223.524 16.0742 228.012 10.5383 228.012C5.0024 228.012 0.514648 223.524 0.514648 217.989C0.514648 212.453 5.0024 207.965 10.5383 207.965C16.0742 207.965 20.562 212.453 20.562 217.989Z" fill="#F4F4F4"/>
<path d="M21.1114 270.507C21.1114 276.337 16.3857 281.063 10.5562 281.063C4.72671 281.063 0.000975846 276.337 0.000976101 270.507C0.000976356 264.678 4.72671 259.952 10.5562 259.952C16.3857 259.952 21.1114 264.678 21.1114 270.507Z" fill="#F4F4F4"/>
<path d="M68.5783 7.99179C68.5783 11.2001 65.9774 13.801 62.7691 13.801C59.5608 13.801 56.96 11.2001 56.96 7.99179C56.96 4.78347 59.5608 2.18262 62.7691 2.18262C65.9774 2.18262 68.5783 4.78347 68.5783 7.99179Z" fill="#F4F4F4"/>
<path d="M67.9785 60.5015C67.9785 63.3743 65.6497 65.7032 62.7769 65.7032C59.9041 65.7032 57.5752 63.3743 57.5752 60.5015C57.5752 57.6287 59.9041 55.2998 62.7769 55.2998C65.6497 55.2998 67.9785 57.6287 67.9785 60.5015Z" fill="#F4F4F4"/>
<path d="M66.4965 165.5C66.4965 167.555 64.8306 169.221 62.7756 169.221C60.7206 169.221 59.0547 167.555 59.0547 165.5C59.0547 163.445 60.7206 161.779 62.7756 161.779C64.8306 161.779 66.4965 163.445 66.4965 165.5Z" fill="#F4F4F4"/>
<path d="M68.0154 218.006C68.0154 220.9 65.6696 223.246 62.7758 223.246C59.882 223.246 57.5361 220.9 57.5361 218.006C57.5361 215.112 59.882 212.767 62.7758 212.767C65.6696 212.767 68.0154 215.112 68.0154 218.006Z" fill="#F4F4F4"/>
<path d="M69.5033 270.51C69.5033 274.222 66.4945 277.231 62.7829 277.231C59.0713 277.231 56.0625 274.222 56.0625 270.51C56.0625 266.799 59.0713 263.79 62.7829 263.79C66.4945 263.79 69.5033 266.799 69.5033 270.51Z" fill="#F4F4F4"/>
<path d="M122.949 7.97337C122.949 12.3769 119.379 15.9467 114.975 15.9467C110.572 15.9467 107.002 12.3769 107.002 7.97337C107.002 3.5698 110.572 1.56041e-07 114.975 3.48527e-07C119.379 5.41013e-07 122.949 3.5698 122.949 7.97337Z" fill="#F4F4F4"/>
<path d="M120.348 60.4942C120.348 63.4509 117.951 65.8477 114.994 65.8477C112.037 65.8477 109.641 63.4509 109.641 60.4942C109.641 57.5375 112.037 55.1406 114.994 55.1406C117.951 55.1406 120.348 57.5375 120.348 60.4942Z" fill="#F4F4F4"/>
<path d="M119.35 112.984C119.35 115.395 117.395 117.35 114.984 117.35C112.572 117.35 110.617 115.395 110.617 112.984C110.617 110.572 112.572 108.617 114.984 108.617C117.395 108.617 119.35 110.572 119.35 112.984Z" fill="#F4F4F4"/>
<path d="M130.264 165.504C130.264 173.933 123.43 180.767 115.001 180.767C106.571 180.767 99.7373 173.933 99.7373 165.504C99.7373 157.074 106.571 150.24 115.001 150.24C123.43 150.24 130.264 157.074 130.264 165.504Z" fill="#F4F4F4"/>
<path d="M119.792 270.476C119.792 273.139 117.634 275.298 114.97 275.298C112.307 275.298 110.148 273.139 110.148 270.476C110.148 267.813 112.307 265.654 114.97 265.654C117.634 265.654 119.792 267.813 119.792 270.476Z" fill="#F4F4F4"/>
<path d="M175.065 7.98154C175.065 12.3222 171.546 15.841 167.205 15.841C162.865 15.841 159.346 12.3222 159.346 7.98154C159.346 3.64087 162.865 0.12207 167.205 0.122071C171.546 0.122071 175.065 3.64087 175.065 7.98154Z" fill="#F4F4F4"/>
<path d="M173.723 60.5063C173.723 64.092 170.816 66.9989 167.23 66.9989C163.644 66.9989 160.737 64.092 160.737 60.5063C160.737 56.9205 163.644 54.0137 167.23 54.0137C170.816 54.0137 173.723 56.9205 173.723 60.5063Z" fill="#F4F4F4"/>
<path d="M172.98 112.987C172.98 116.174 170.396 118.758 167.209 118.758C164.021 118.758 161.437 116.174 161.437 112.987C161.437 109.8 164.021 107.216 167.209 107.216C170.396 107.216 172.98 109.8 172.98 112.987Z" fill="#F4F4F4"/>
<path d="M172.383 165.5C172.383 168.351 170.071 170.663 167.219 170.663C164.368 170.663 162.056 168.351 162.056 165.5C162.056 162.648 164.368 160.336 167.219 160.336C170.071 160.336 172.383 162.648 172.383 165.5Z" fill="#F4F4F4"/>
<path d="M171.257 217.976C171.257 220.219 169.438 222.038 167.194 222.038C164.951 222.038 163.132 220.219 163.132 217.976C163.132 215.732 164.951 213.913 167.194 213.913C169.438 213.913 171.257 215.732 171.257 217.976Z" fill="#F4F4F4"/>
<path d="M226.23 60.4878C226.23 64.2413 223.188 67.2841 219.434 67.2841C215.681 67.2841 212.638 64.2413 212.638 60.4878C212.638 56.7342 215.681 53.6914 219.434 53.6914C223.188 53.6914 226.23 56.7342 226.23 60.4878Z" fill="#F4F4F4"/>
</svg>
